<?xml version="1.0" encoding="utf-8"?>
<!-- Generator: Adobe Illustrator 25.3.0, SVG Export Plug-In . SVG Version: 6.00 Build 0)  -->
<svg version="1.1"
	 id="Layer_1" xmlns:cc="http://creativecommons.org/ns#" xmlns:dc="http://purl.org/dc/elements/1.1/" xmlns:inkscape="http://www.inkscape.org/namespaces/inkscape" xmlns:rdf="http://www.w3.org/1999/02/22-rdf-syntax-ns#" xmlns:sodipodi="http://sodipodi.sourceforge.net/DTD/sodipodi-0.dtd" xmlns:svg="http://www.w3.org/2000/svg"
	 xmlns="http://www.w3.org/2000/svg" xmlns:xlink="http://www.w3.org/1999/xlink" x="0px" y="0px" viewBox="0 0 74 56"
	 style="enable-background:new 0 0 74 56;" xml:space="preserve">
<style type="text/css">
	.st0{opacity:0.62;fill:#808080;enable-background:new    ;}
	.st1{fill:#919191;}
	.st2{opacity:0.5;}
	.st3{fill:#717171;}
	.st4{fill:#4B4B4B;}
	.st5{fill:#FB8C00;}
	.st6{fill:#C65000;}
	.st7{opacity:0.6;fill:#4B4B4B;enable-background:new    ;}
	.st8{fill:#00BB64;}
	.st9{fill:#008837;}
</style>
<sodipodi:namedview  bordercolor="#666666" borderopacity="1" gridtolerance="10" guidetolerance="10" id="namedview89" inkscape:current-layer="Layer_1" inkscape:cx="37" inkscape:cy="28" inkscape:document-rotation="0" inkscape:pageopacity="0" inkscape:pageshadow="2" inkscape:window-height="781" inkscape:window-maximized="0" inkscape:window-width="1261" inkscape:window-x="0" inkscape:window-y="23" inkscape:zoom="10.25" objecttolerance="10" pagecolor="#ffffff" showgrid="false">
	</sodipodi:namedview>
<rect id="rect95" x="8.2" y="10.2" class="st0" width="65.9" height="20.8"/>
<g id="g86">
	<rect id="rect10" y="-0.1" class="st1" width="8" height="54"/>
	<rect id="rect12" y="47.9" class="st1" width="74" height="8"/>
	<g id="g16" class="st2">
		<polygon id="polygon14" class="st3" points="73.9,55.8 0.3,55 0.3,-0.1 2.3,-0.1 2.3,53 73.9,53.9 		"/>
	</g>
	<polygon id="polygon18" class="st3" points="8.3,-0.2 6.8,49.8 74.3,47.8 8.3,47.8 	"/>
	<g id="g22">
		<rect id="rect20" x="30" y="1.9" class="st4" width="4" height="2"/>
	</g>
	<rect id="rect24" x="26" y="3.9" class="st1" width="4" height="20"/>
	<rect id="rect26" x="22" y="-0.1" class="st1" width="12" height="4"/>
	<g id="layer1" inkscape:groupmode="layer" inkscape:label="Layer 1">
	</g>
	<g id="g34">
		<rect id="rect32" x="22" y="1.9" class="st4" width="4" height="2"/>
	</g>
	<rect id="rect36" x="26" y="25.9" class="st1" width="4" height="8"/>
	<rect id="rect38" x="22" y="33.9" class="st1" width="12" height="4"/>
	<g id="g42">
		<polygon id="polygon40" class="st4" points="28,35.9 22,35.9 22,33.9 26,33.9 26,25.9 28,25.9 		"/>
	</g>
	<g id="g46">
		<rect id="rect44" x="30" y="33.9" class="st4" width="4" height="2"/>
	</g>
	<circle id="circle48" class="st5" cx="27.7" cy="19.7" r="7.5"/>
	<path id="path50" class="st6" d="M32.5,16.1c0.1,0.5,0.2,1.1,0.2,1.6c0,3.3-2.7,6-6,6c-1.9,0-3.7-0.9-4.8-2.4
		c0.7,2.5,3,4.4,5.8,4.4c3.3,0,6-2.7,6-6C33.7,18.4,33.3,17.1,32.5,16.1z"/>
	<g id="g54">
		<rect id="rect52" x="58" y="7.9" class="st4" width="4" height="2"/>
	</g>
	<rect id="rect56" x="54" y="9.9" class="st1" width="4" height="20"/>
	<rect id="rect58" x="50" y="5.9" class="st1" width="12" height="4"/>
	<g id="g62">
		<polygon id="polygon60" class="st4" points="58,17.9 56,17.9 56,7.9 62,7.9 62,9.9 58,9.9 		"/>
	</g>
	<g id="g66">
		<rect id="rect64" x="50" y="7.9" class="st4" width="4" height="2"/>
	</g>
	<rect id="rect68" x="54" y="31.9" class="st1" width="4" height="8"/>
	<rect id="rect70" x="50" y="39.9" class="st1" width="12" height="4"/>
	<g id="g74">
		<polygon id="polygon72" class="st4" points="56,41.9 50,41.9 50,39.9 54,39.9 54,31.9 56,31.9 		"/>
	</g>
	<g id="g78">
		<rect id="rect76" x="58" y="39.9" class="st4" width="4" height="2"/>
	</g>
	<path id="path84" class="st7" d="M0.3-0.2l0.6,13.7l0.5,13.7C1.7,36.5,1.8,45.7,2,54.8l-0.7-0.7c12.2,0.1,24.3,0.4,36.5,0.6
		L56,55.2c6.1,0.2,12.2,0.4,18.2,0.7C68.2,55.9,62.1,56,56,56l-18.2,0c-12.2-0.1-24.3-0.2-36.5-0.4l-0.7,0l0-0.7
		c-0.1-9.2-0.3-18.3-0.3-27.5l0-13.8L0.3-0.2z"/>
	<g id="g30">
		<polygon id="polygon28" class="st4" points="30,11.9 28,11.9 28,1.9 34,1.9 34,3.9 30,3.9 		"/>
	</g>
	<circle class="st8" cx="56" cy="24.8" r="7.5"/>
	<path class="st9" d="M60.8,21.2c0.1,0.5,0.2,1.1,0.2,1.6c0,3.3-2.7,6-6,6c-1.9,0-3.7-0.9-4.8-2.4c0.7,2.5,3,4.4,5.8,4.4
		c3.3,0,6-2.7,6-6C62,23.5,61.5,22.2,60.8,21.2z"/>
</g>
</svg>
